<?xml version="1.0" standalone="no"?>
<!DOCTYPE svg PUBLIC "-//W3C//DTD SVG 20010904//EN"
 "http://www.w3.org/TR/2001/REC-SVG-20010904/DTD/svg10.dtd">
<svg version="1.0" xmlns="http://www.w3.org/2000/svg"
 width="400.000000pt" height="400.000000pt" viewBox="0 0 400.000000 400.000000"
 preserveAspectRatio="xMidYMid meet">
<metadata>
Created by potrace 1.11, written by Peter Selinger 2001-2013
</metadata>
<g transform="translate(0.000000,400.000000) scale(0.100000,-0.100000)"
fill="#000000" stroke="none">
<path d="M1835 3828 c-128 -24 -192 -40 -213 -54 -13 -8 -31 -14 -41 -12 -39
7 -211 -123 -211 -159 0 -7 -4 -13 -10 -13 -5 0 -10 -7 -10 -16 0 -9 -11 -29
-25 -46 -14 -16 -25 -38 -25 -49 0 -11 -7 -30 -15 -43 -9 -14 -18 -58 -21
-107 -3 -46 -9 -104 -14 -129 -5 -27 -4 -67 2 -100 13 -72 -5 -157 -36 -166
-12 -3 -33 -17 -47 -31 -21 -19 -25 -30 -20 -50 8 -30 54 -54 49 -26 -3 19 65
63 78 51 3 -4 9 -36 11 -72 5 -56 3 -67 -12 -72 -10 -4 -27 -1 -39 6 -19 12
-20 12 -8 -3 8 -9 21 -19 30 -21 14 -5 16 -18 14 -86 -3 -70 -1 -79 12 -74 9
3 19 17 22 29 8 33 41 62 55 48 6 -6 24 -8 44 -3 34 8 64 -8 47 -24 -4 -4 -8
-16 -8 -27 -1 -10 -2 -26 -3 -34 0 -9 -12 -20 -26 -25 -15 -6 -23 -15 -19 -23
7 -20 -21 -40 -67 -44 -38 -4 -39 -3 -35 22 3 14 1 23 -5 20 -14 -9 -11 29 4
44 10 10 9 11 -5 6 -17 -7 -25 -45 -12 -58 3 -3 8 -27 10 -52 5 -61 46 -179
100 -287 13 -27 24 -55 24 -63 0 -43 103 -196 127 -188 5 2 18 -3 28 -11 16
-12 18 -18 8 -34 -10 -17 -8 -19 18 -19 18 0 40 -10 57 -26 15 -14 41 -28 59
-30 27 -4 31 -2 28 14 -5 24 4 24 21 2 12 -17 14 -16 38 6 14 14 26 21 26 16
0 -5 5 -4 12 3 16 16 31 15 22 0 -4 -7 1 -5 12 4 22 19 76 19 80 0 1 -7 0 -8
-3 -2 -2 5 -9 10 -14 10 -5 0 -4 -9 3 -19 10 -16 14 -17 22 -6 9 12 15 11 33
-4 21 -17 21 -20 6 -32 -15 -12 -16 -12 -10 4 4 10 3 16 -2 12 -5 -3 -11 -2
-14 2 -2 5 -2 1 1 -7 2 -8 5 -19 6 -25 10 -37 29 -67 48 -74 13 -5 24 -5 26 0
2 5 10 9 18 9 16 0 18 12 5 26 -16 16 30 43 57 33 18 -7 22 -14 17 -30 -5 -15
-4 -19 4 -15 12 8 15 -6 4 -18 -4 -4 -8 -19 -8 -34 -1 -29 -23 -82 -40 -94 -5
-4 -7 -8 -3 -8 7 0 -6 -57 -23 -102 -7 -16 -21 -29 -37 -33 -15 -3 -34 -8 -43
-11 -18 -5 -55 59 -44 76 8 13 -11 13 -37 -1 -13 -7 -18 -7 -14 -1 9 15 -7 22
-24 12 -8 -5 -19 -5 -26 0 -7 7 -11 -1 -12 -28 -1 -22 -8 -42 -19 -49 -25 -19
-67 -16 -87 6 -16 17 -58 106 -73 154 -10 31 -26 19 -19 -15 16 -75 18 -98 9
-98 -22 0 -42 38 -53 100 -7 36 -16 84 -20 108 -4 23 -4 45 1 48 5 3 2 12 -6
20 -8 9 -15 28 -15 44 0 16 -3 31 -8 34 -9 6 -34 -13 -53 -41 -19 -27 -77 -68
-110 -76 -13 -4 -35 -16 -49 -27 l-25 -21 38 18 c24 11 41 13 47 7 14 -14 0
-54 -20 -54 -10 0 -40 -15 -67 -34 -57 -39 -165 -74 -266 -87 -90 -11 -269
-64 -328 -96 -26 -14 -60 -39 -76 -55 l-28 -30 38 25 c72 49 206 87 422 123
124 20 185 41 253 88 58 39 72 39 72 0 0 -14 -4 -23 -9 -19 -6 3 -26 -9 -45
-26 -44 -38 -145 -74 -250 -88 -128 -18 -337 -70 -401 -100 -111 -52 -151
-101 -181 -224 -53 -218 -74 -322 -94 -457 -6 -41 -17 -97 -25 -125 -8 -27
-23 -101 -34 -163 -12 -61 -30 -130 -41 -152 -11 -21 -20 -58 -20 -81 0 -29
-7 -50 -25 -71 -14 -16 -25 -34 -25 -39 0 -5 123 -9 299 -9 l298 0 6 73 c3 53
1 80 -10 101 -9 17 -13 41 -9 57 7 35 -1 59 -20 59 -21 0 -95 38 -122 63 -39
36 -54 108 -46 227 4 58 13 121 20 141 11 34 178 302 213 343 9 10 61 52 116
93 55 41 123 99 151 129 47 49 55 54 94 54 39 0 48 5 89 49 42 44 88 78 96 69
1 -2 15 -29 29 -60 31 -65 64 -97 147 -139 211 -106 483 -72 705 87 l76 54 48
-47 c76 -76 128 -116 193 -148 52 -26 65 -38 96 -93 20 -35 60 -98 90 -140 29
-42 81 -128 114 -192 33 -63 85 -150 114 -193 71 -104 78 -134 77 -307 -1
-122 -5 -154 -23 -200 -11 -30 -21 -61 -21 -67 0 -10 52 -13 225 -13 124 0
225 2 225 5 0 4 -7 20 -16 37 -22 43 -44 236 -44 393 0 127 -19 262 -56 406
-8 30 -14 71 -14 91 0 20 -9 46 -20 61 -26 33 -175 112 -270 144 -41 13 -95
36 -120 50 -124 71 -193 98 -288 114 -87 13 -153 51 -210 117 -37 43 -44 57
-35 70 19 30 41 25 67 -17 25 -38 68 -76 114 -100 12 -7 66 -19 119 -26 78
-12 116 -25 207 -69 61 -29 143 -64 181 -76 80 -26 210 -97 245 -135 13 -13
26 -44 30 -67 16 -95 33 -177 52 -246 11 -40 22 -110 24 -155 3 -45 10 -98 16
-117 7 -19 13 -64 14 -100 2 -126 21 -234 61 -362 3 -10 13 -18 23 -18 19 0
17 27 -13 125 -8 28 -18 90 -22 140 -15 186 -23 262 -33 320 -6 33 -16 96 -22
140 -19 127 -69 317 -96 357 -36 56 -123 116 -231 159 -53 22 -102 39 -108 39
-7 0 -38 14 -70 31 -83 44 -125 57 -223 69 -102 13 -132 29 -227 118 -51 48
-65 67 -60 82 11 33 38 23 95 -36 90 -91 103 -98 204 -105 82 -6 97 -11 186
-57 53 -28 123 -58 156 -68 133 -38 255 -121 304 -207 60 -104 111 -327 145
-632 25 -215 27 -229 46 -294 10 -35 19 -90 19 -122 0 -52 2 -59 20 -59 18 0
20 7 20 63 0 35 -9 97 -20 138 -12 41 -25 118 -30 171 -5 54 -14 124 -19 155
-6 32 -15 83 -20 113 -37 221 -91 407 -138 485 -58 92 -158 168 -296 225 -82
33 -122 52 -225 109 -16 9 -52 13 -96 13 -89 -2 -154 27 -233 104 -31 29 -64
56 -74 59 -25 8 -26 52 -1 57 13 3 10 8 -15 21 -18 9 -39 17 -47 17 -8 0 -28
16 -43 35 -16 19 -47 44 -70 55 -36 17 -41 24 -51 72 -6 33 -7 71 -2 98 5 25
18 118 30 205 11 88 26 188 32 221 11 62 11 62 50 67 47 6 100 45 132 95 12
20 40 81 61 136 34 89 37 105 31 160 -7 68 -27 104 -72 126 -28 14 -29 17 -30
85 -2 94 -19 263 -31 300 -6 17 -20 48 -32 70 -11 22 -21 44 -22 50 0 18 -114
180 -126 180 -6 0 -40 14 -75 32 -34 17 -90 41 -123 53 -33 12 -84 32 -113 46
-56 25 -101 29 -187 12z m-150 -498 c-1 -22 1 -43 6 -46 5 -3 9 2 9 10 0 15
12 21 33 17 5 -1 24 8 42 19 34 21 50 15 39 -14 -4 -10 0 -16 10 -17 41 -3 41
-3 50 -44 5 -22 4 -26 -4 -15 -8 13 -10 13 -10 -2 0 -9 -7 -18 -17 -20 -15 -3
-15 -4 1 -17 13 -11 16 -11 14 -1 -2 7 3 15 9 17 9 3 11 -4 7 -29 -6 -31 -6
-32 9 -13 16 20 16 20 10 -2 -3 -13 -1 -23 5 -23 18 0 34 -37 20 -46 -7 -5 -8
-3 -3 6 6 10 4 12 -10 7 -9 -4 -23 -3 -29 1 -6 5 -20 12 -30 16 -15 5 -17 4
-8 -7 12 -14 7 -27 -10 -27 -5 0 -7 4 -3 9 3 5 1 12 -5 16 -5 3 -10 1 -10 -4
0 -6 -9 -11 -19 -11 -11 0 -26 -7 -35 -15 -8 -8 -19 -15 -24 -15 -12 0 -10 63
3 72 16 12 12 41 -9 62 -20 20 -56 29 -56 14 0 -4 6 -8 14 -8 8 0 18 -5 22
-12 5 -8 2 -9 -11 -5 -14 6 -16 3 -12 -13 3 -13 -1 -21 -14 -25 -15 -5 -16
-10 -7 -29 6 -16 16 -22 28 -19 10 3 21 0 25 -7 4 -7 -1 -14 -14 -17 -11 -3
-18 -10 -15 -17 3 -6 -1 -3 -9 6 -13 16 -16 15 -47 -17 -21 -22 -38 -31 -43
-26 -5 5 -16 7 -23 4 -8 -3 -21 0 -29 7 -9 8 -29 10 -49 7 -18 -3 -38 -1 -43
4 -6 6 -14 4 -23 -6 -17 -21 -33 -19 -48 6 -7 12 -16 18 -19 15 -14 -14 -33
20 -32 58 1 22 3 34 6 24 5 -20 32 -32 29 -13 -1 8 -5 18 -9 21 -4 4 -2 13 4
21 6 7 8 13 5 13 -4 0 0 7 9 16 14 15 14 17 -1 28 -14 11 -13 16 12 47 39 46
44 49 84 48 19 -1 40 -1 45 1 26 6 36 0 26 -18 -9 -16 -6 -18 20 -14 17 3 29
0 29 -7 0 -6 -5 -11 -12 -11 -6 0 -3 -7 8 -15 19 -14 18 -14 -3 -15 -13 0 -23
5 -23 12 0 6 -2 9 -5 6 -12 -12 7 -36 26 -31 10 3 19 0 19 -6 0 -6 -6 -11 -12
-12 -10 0 -10 -2 0 -6 6 -2 9 -10 6 -15 -4 -7 -2 -8 4 -4 7 4 12 15 12 25 0
10 9 21 19 24 10 2 24 15 31 27 11 20 10 21 -9 15 -17 -5 -21 -2 -20 17 0 13
3 17 6 10 2 -6 9 -9 14 -6 6 3 5 11 -2 20 -9 12 -9 13 3 9 8 -3 21 1 28 10 18
21 18 20 15 -25z m163 -15 c-3 -3 -9 2 -12 12 -6 14 -5 15 5 6 7 -7 10 -15 7
-18z m-241 -16 c2 -16 -1 -19 -9 -11 -5 5 -7 15 -4 21 10 15 12 14 13 -10z
m-141 -440 c0 -10 -8 -20 -17 -22 -12 -3 -16 2 -16 19 0 15 5 22 16 21 9 0 17
-9 17 -18z m453 -219 c12 0 24 -7 27 -15 4 -9 19 -15 36 -15 28 0 63 -22 52
-33 -3 -3 2 -19 11 -36 10 -21 12 -31 4 -31 -8 0 -8 -4 1 -15 9 -11 9 -15 1
-15 -8 0 -9 -5 -1 -19 8 -16 5 -28 -15 -57 l-25 -36 -9 24 c-5 14 -39 56 -76
94 -70 71 -88 101 -90 146 0 20 3 25 17 23 10 -2 18 2 18 8 0 7 7 4 14 -5 7
-10 23 -18 35 -18z m-379 -40 c0 -5 -4 -10 -10 -10 -5 0 -10 5 -10 10 0 6 5
10 10 10 6 0 10 -4 10 -10z m475 -260 c3 -5 1 -10 -4 -10 -6 0 -11 5 -11 10 0
6 2 10 4 10 3 0 8 -4 11 -10z m25 -508 c0 -13 -12 -22 -22 -16 -10 6 -1 24 13
24 5 0 9 -4 9 -8z"/>
<path d="M1460 3299 c0 -5 5 -7 10 -4 6 3 10 8 10 11 0 2 -4 4 -10 4 -5 0 -10
-5 -10 -11z"/>
<path d="M1830 3265 c7 -8 17 -12 22 -9 6 4 5 10 -3 15 -22 14 -33 10 -19 -6z"/>
<path d="M1510 3260 c0 -5 5 -10 11 -10 5 0 7 5 4 10 -3 6 -8 10 -11 10 -2 0
-4 -4 -4 -10z"/>
<path d="M1531 3221 c-10 -6 -9 -10 3 -14 8 -3 18 -2 21 3 8 13 -9 20 -24 11z"/>
<path d="M1616 3217 c3 -10 9 -15 12 -12 3 3 0 11 -7 18 -10 9 -11 8 -5 -6z"/>
<path d="M1810 3201 c0 -5 7 -12 16 -15 14 -5 15 -4 4 9 -14 17 -20 19 -20 6z"/>
<path d="M1509 3149 c2 -33 7 -49 15 -46 46 20 46 20 39 1 -6 -16 -4 -17 9 -7
8 7 19 9 23 5 5 -4 5 -1 1 6 -4 6 -2 12 3 12 6 0 11 -4 11 -10 0 -5 7 -10 15
-10 21 0 19 16 -5 40 -18 18 -20 18 -30 2 -11 -16 -11 -16 -6 1 4 13 1 17 -12
15 -9 -2 -21 -8 -27 -13 -5 -6 -9 -8 -8 -6 2 2 -2 10 -8 17 -13 16 -2 37 13
28 7 -4 8 -2 4 4 -4 7 -15 12 -24 12 -14 0 -16 -8 -13 -51z"/>
<path d="M1762 3170 c0 -14 2 -19 5 -12 2 6 2 18 0 25 -3 6 -5 1 -5 -13z"/>
<path d="M1610 1813 c0 -4 12 -16 25 -26 14 -10 25 -14 25 -10 0 4 -12 16 -25
26 -14 10 -25 14 -25 10z"/>
<path d="M2101 1745 c0 -5 3 -16 8 -23 6 -10 11 -9 22 4 12 16 12 17 -3 11 -9
-3 -19 -1 -22 6 -2 7 -5 8 -5 2z"/>
<path d="M2610 1641 c0 -17 71 -69 145 -106 54 -28 78 -35 99 -29 26 6 24 8
-31 30 -32 13 -69 32 -83 43 -41 29 -130 72 -130 62z"/>
<path d="M1170 1575 c-14 -8 -20 -14 -15 -14 6 0 21 6 35 14 14 8 21 14 15 14
-5 0 -21 -6 -35 -14z"/>
<path d="M1058 1533 c7 -3 16 -2 19 1 4 3 -2 6 -13 5 -11 0 -14 -3 -6 -6z"/>
<path d="M3564 954 c45 -150 116 -474 116 -532 0 -15 9 -60 20 -100 15 -54 21
-106 21 -198 1 -124 1 -124 25 -124 24 0 24 1 25 108 3 241 -14 381 -65 533
-19 57 -40 124 -46 149 -12 48 -73 165 -91 176 -7 4 -9 0 -5 -12z"/>
<path d="M2536 451 c-9 -16 -16 -48 -16 -71 0 -33 4 -42 23 -50 16 -6 3 -9
-53 -11 l-75 -2 65 -7 c108 -13 220 -18 220 -8 0 4 -27 8 -60 8 -33 0 -60 4
-60 10 0 6 7 10 15 10 20 0 19 43 -3 99 -21 55 -36 61 -56 22z"/>
<path d="M2380 403 c1 -10 7 -29 15 -43 11 -21 21 -25 59 -26 69 -1 55 37 -27
71 -46 19 -47 19 -47 -2z"/>
<path d="M2685 388 c-33 -18 -65 -50 -59 -59 3 -5 27 -9 53 -9 42 0 50 3 55
23 15 55 -2 71 -49 45z"/>
<path d="M306 294 c-4 -9 -4 -19 -1 -22 2 -3 7 3 11 12 4 9 4 19 1 22 -2 3 -7
-3 -11 -12z"/>
<path d="M2444 283 c7 -7 15 -8 129 -11 45 -1 66 -6 62 -13 -4 -6 -13 -8 -21
-5 -14 5 -30 -11 -21 -21 3 -3 19 -2 36 2 20 4 28 11 24 21 -3 10 0 12 10 8 8
-3 18 -1 21 4 3 5 -18 12 -47 16 -70 8 -202 8 -193 -1z"/>
<path d="M2478 258 c18 -22 52 -30 52 -12 0 8 -6 14 -14 14 -8 0 -23 3 -33 7
-15 6 -16 4 -5 -9z"/>
<path d="M2552 249 c2 -6 8 -10 13 -10 5 0 11 4 13 10 2 6 -4 11 -13 11 -9 0
-15 -5 -13 -11z"/>
<path d="M2483 189 c-19 -11 -35 -14 -38 -9 -11 17 -44 11 -55 -11 -9 -15 -8
-24 1 -35 14 -17 59 -19 59 -3 0 8 4 8 14 0 8 -7 42 -10 90 -8 42 2 76 0 76
-4 0 -4 25 -7 55 -7 58 1 72 16 38 38 -17 11 -17 11 0 6 12 -4 17 -2 15 6 -3
7 -13 13 -24 13 -14 0 -18 -6 -17 -22 2 -13 -2 -23 -7 -23 -6 0 -10 12 -10 26
0 25 -2 26 -35 21 -27 -5 -35 -2 -35 10 0 13 -3 13 -15 3 -8 -7 -15 -9 -15 -5
0 4 -6 2 -14 -4 -15 -13 -43 -5 -48 13 -2 10 -11 8 -35 -5z m-55 -36 c-4 -22
-22 -20 -26 1 -2 10 3 16 13 16 10 0 15 -7 13 -17z m72 -3 c0 -21 -15 -27 -25
-10 -7 12 2 30 16 30 5 0 9 -9 9 -20z m96 9 c10 -17 -13 -36 -27 -22 -12 12
-4 33 11 33 5 0 12 -5 16 -11z m69 -8 c7 -12 -12 -24 -25 -16 -11 7 -4 25 10
25 5 0 11 -4 15 -9z"/>
<path d="M224 93 c-11 -27 -21 -52 -23 -58 -2 -5 11 8 28 30 17 22 31 48 31
58 0 32 -17 17 -36 -30z"/>
</g>
</svg>
